<mxfile host="65bd71144e">
    <diagram name="Chapter_1_Alexander" id="vyDlKF1bLINm5wJuJQlG">
        <mxGraphModel dx="896" dy="614" grid="1" gridSize="10" guides="1" tooltips="1" connect="1" arrows="1" fold="1" page="1" pageScale="1" pageWidth="827" pageHeight="1169" math="0" shadow="0">
            <root>
                <mxCell id="0"/>
                <mxCell id="1" parent="0"/>
                <mxCell id="cvKSAtzWg2OH9WG14mFE-227" value="" style="rounded=0;whiteSpace=wrap;html=1;fillColor=#FFFFFF;strokeColor=#82b366;" vertex="1" parent="1">
                    <mxGeometry x="210" y="110" width="640" height="990" as="geometry"/>
                </mxCell>
                <mxCell id="7pUMp-ePgJumYKTbxFki-1" value="" style="rounded=0;whiteSpace=wrap;html=1;fillColor=#d5e8d4;strokeColor=#82b366;opacity=70;" parent="1" vertex="1">
                    <mxGeometry x="210" y="110" width="640" height="990" as="geometry"/>
                </mxCell>
                <mxCell id="7pUMp-ePgJumYKTbxFki-2" value="&lt;b&gt;&lt;font style=&quot;font-size: 14px;&quot; color=&quot;#000000&quot;&gt;General&lt;/font&gt;&lt;/b&gt;" style="rounded=1;whiteSpace=wrap;html=1;fillColor=#CCCCCC;strokeColor=#000000;arcSize=0;" parent="1" vertex="1">
                    <mxGeometry x="240" y="140" width="280" height="30" as="geometry"/>
                </mxCell>
                <mxCell id="7pUMp-ePgJumYKTbxFki-8" value="&lt;b&gt;Attributes&lt;/b&gt;" style="rounded=1;whiteSpace=wrap;html=1;fillColor=#CCCCCC;strokeColor=#000000;fontColor=#000000;arcSize=0;" parent="1" vertex="1">
                    <mxGeometry x="250" y="500.5" width="560" height="30" as="geometry"/>
                </mxCell>
                <mxCell id="cvKSAtzWg2OH9WG14mFE-49" value="&lt;b&gt;&lt;font color=&quot;#000000&quot;&gt;Divinity Line&lt;/font&gt;&lt;/b&gt;" style="rounded=1;whiteSpace=wrap;html=1;fillColor=#CCCCCC;strokeColor=#000000;arcSize=0;" vertex="1" parent="1">
                    <mxGeometry x="540" y="140" width="280" height="30" as="geometry"/>
                </mxCell>
                <mxCell id="cvKSAtzWg2OH9WG14mFE-122" value="&lt;font style=&quot;font-size: 14px;&quot; color=&quot;#000000&quot;&gt;Alexander K. Leonandra&lt;/font&gt;" style="shape=partialRectangle;whiteSpace=wrap;html=1;bottom=1;right=1;left=1;top=0;fillColor=#FFFFFF;routingCenterX=-0.5;shadow=0;comic=0;strokeColor=#000000;fontSize=17;" vertex="1" parent="1">
                    <mxGeometry x="240" y="199" width="280" height="30" as="geometry"/>
                </mxCell>
                <mxCell id="cvKSAtzWg2OH9WG14mFE-123" value="&lt;font size=&quot;1&quot; style=&quot;&quot; color=&quot;#000000&quot;&gt;&lt;b style=&quot;font-size: 12px;&quot;&gt;Name&lt;/b&gt;&lt;/font&gt;" style="shape=partialRectangle;whiteSpace=wrap;html=1;bottom=1;right=1;left=1;top=0;fillColor=#FFFFFF;routingCenterX=-0.5;shadow=0;comic=0;strokeColor=#000000;fontSize=17;direction=west;" vertex="1" parent="1">
                    <mxGeometry x="240" y="170" width="280" height="30" as="geometry"/>
                </mxCell>
                <mxCell id="cvKSAtzWg2OH9WG14mFE-124" value="" style="line;strokeWidth=1;html=1;shadow=0;comic=0;strokeColor=#000000;fontSize=17;fillColor=#FFFFFF;" vertex="1" parent="1">
                    <mxGeometry x="290" y="200" width="190" height="1" as="geometry"/>
                </mxCell>
                <mxCell id="cvKSAtzWg2OH9WG14mFE-125" value="&lt;font style=&quot;font-size: 14px;&quot; color=&quot;#000000&quot;&gt;-&lt;/font&gt;" style="shape=partialRectangle;whiteSpace=wrap;html=1;bottom=1;right=1;left=1;top=0;fillColor=#FFFFFF;routingCenterX=-0.5;shadow=0;comic=0;strokeColor=#000000;fontSize=17;" vertex="1" parent="1">
                    <mxGeometry x="540" y="199" width="280" height="30" as="geometry"/>
                </mxCell>
                <mxCell id="cvKSAtzWg2OH9WG14mFE-126" value="&lt;font size=&quot;1&quot; style=&quot;&quot; color=&quot;#000000&quot;&gt;&lt;b style=&quot;font-size: 12px;&quot;&gt;Locked&lt;/b&gt;&lt;/font&gt;" style="shape=partialRectangle;whiteSpace=wrap;html=1;bottom=1;right=1;left=1;top=0;fillColor=#FFFFFF;routingCenterX=-0.5;shadow=0;comic=0;strokeColor=#000000;fontSize=17;direction=west;" vertex="1" parent="1">
                    <mxGeometry x="540" y="170" width="280" height="30" as="geometry"/>
                </mxCell>
                <mxCell id="cvKSAtzWg2OH9WG14mFE-127" value="" style="line;strokeWidth=1;html=1;shadow=0;comic=0;strokeColor=#000000;fontSize=17;fillColor=#FFFFFF;" vertex="1" parent="1">
                    <mxGeometry x="610" y="200" width="140" height="1" as="geometry"/>
                </mxCell>
                <mxCell id="cvKSAtzWg2OH9WG14mFE-128" value="&lt;font style=&quot;font-size: 14px;&quot; color=&quot;#000000&quot;&gt;7&lt;/font&gt;" style="shape=partialRectangle;whiteSpace=wrap;html=1;bottom=1;right=1;left=1;top=0;fillColor=#FFFFFF;routingCenterX=-0.5;shadow=0;comic=0;strokeColor=#000000;fontSize=17;" vertex="1" parent="1">
                    <mxGeometry x="240" y="258" width="280" height="30" as="geometry"/>
                </mxCell>
                <mxCell id="cvKSAtzWg2OH9WG14mFE-129" value="&lt;font size=&quot;1&quot; style=&quot;&quot; color=&quot;#000000&quot;&gt;&lt;b style=&quot;font-size: 12px;&quot;&gt;Level&lt;/b&gt;&lt;/font&gt;" style="shape=partialRectangle;whiteSpace=wrap;html=1;bottom=1;right=1;left=1;top=0;fillColor=#FFFFFF;routingCenterX=-0.5;shadow=0;comic=0;strokeColor=#000000;fontSize=17;direction=west;" vertex="1" parent="1">
                    <mxGeometry x="240" y="229" width="280" height="30" as="geometry"/>
                </mxCell>
                <mxCell id="cvKSAtzWg2OH9WG14mFE-130" value="" style="line;strokeWidth=1;html=1;shadow=0;comic=0;strokeColor=#000000;fontSize=17;fillColor=#FFFFFF;" vertex="1" parent="1">
                    <mxGeometry x="290" y="259" width="190" height="1" as="geometry"/>
                </mxCell>
                <mxCell id="cvKSAtzWg2OH9WG14mFE-136" value="700" style="shape=partialRectangle;whiteSpace=wrap;html=1;bottom=1;right=1;left=1;top=0;fillColor=#FFFFFF;routingCenterX=-0.5;shadow=0;comic=0;strokeColor=#000000;strokeWidth=1;fontSize=14;fontColor=#000000;" vertex="1" parent="1">
                    <mxGeometry x="380" y="317" width="140" height="30" as="geometry"/>
                </mxCell>
                <mxCell id="cvKSAtzWg2OH9WG14mFE-137" value="635" style="shape=partialRectangle;whiteSpace=wrap;html=1;bottom=1;right=1;left=1;top=0;fillColor=#FFFFFF;routingCenterX=-0.5;shadow=0;comic=0;strokeColor=#000000;strokeWidth=1;fontSize=14;fontColor=#000000;" vertex="1" parent="1">
                    <mxGeometry x="240" y="317" width="140" height="30" as="geometry"/>
                </mxCell>
                <mxCell id="cvKSAtzWg2OH9WG14mFE-133" value="" style="line;strokeWidth=1;html=1;shadow=0;comic=0;strokeColor=#000000;fontSize=17;fillColor=#FFFFFF;" vertex="1" parent="1">
                    <mxGeometry x="290" y="318" width="190" height="1" as="geometry"/>
                </mxCell>
                <mxCell id="cvKSAtzWg2OH9WG14mFE-132" value="&lt;font size=&quot;1&quot; style=&quot;&quot; color=&quot;#000000&quot;&gt;&lt;b style=&quot;font-size: 12px;&quot;&gt;Experience&lt;/b&gt;&lt;/font&gt;" style="shape=partialRectangle;whiteSpace=wrap;html=1;bottom=1;right=1;left=1;top=0;fillColor=#FFFFFF;routingCenterX=-0.5;shadow=0;comic=0;strokeColor=#000000;fontSize=17;direction=west;" vertex="1" parent="1">
                    <mxGeometry x="240" y="288" width="280" height="30" as="geometry"/>
                </mxCell>
                <mxCell id="cvKSAtzWg2OH9WG14mFE-139" value="20" style="shape=partialRectangle;whiteSpace=wrap;html=1;bottom=1;right=1;left=1;top=0;fillColor=#FFFFFF;routingCenterX=-0.5;shadow=0;comic=0;strokeColor=#000000;strokeWidth=1;fontSize=14;fontColor=#000000;" vertex="1" parent="1">
                    <mxGeometry x="380" y="376" width="140" height="30" as="geometry"/>
                </mxCell>
                <mxCell id="cvKSAtzWg2OH9WG14mFE-140" value="20" style="shape=partialRectangle;whiteSpace=wrap;html=1;bottom=1;right=1;left=1;top=0;fillColor=#FFFFFF;routingCenterX=-0.5;shadow=0;comic=0;strokeColor=#000000;strokeWidth=1;fontSize=14;fontColor=#000000;" vertex="1" parent="1">
                    <mxGeometry x="240" y="376" width="140" height="30" as="geometry"/>
                </mxCell>
                <mxCell id="cvKSAtzWg2OH9WG14mFE-141" value="" style="line;strokeWidth=1;html=1;shadow=0;comic=0;strokeColor=#000000;fontSize=17;fillColor=#FFFFFF;" vertex="1" parent="1">
                    <mxGeometry x="290" y="377" width="190" height="1" as="geometry"/>
                </mxCell>
                <mxCell id="cvKSAtzWg2OH9WG14mFE-142" value="&lt;font size=&quot;1&quot; style=&quot;&quot; color=&quot;#000000&quot;&gt;&lt;b style=&quot;font-size: 12px;&quot;&gt;Health Points&lt;/b&gt;&lt;/font&gt;" style="shape=partialRectangle;whiteSpace=wrap;html=1;bottom=1;right=1;left=1;top=0;fillColor=#FFFFFF;routingCenterX=-0.5;shadow=0;comic=0;strokeColor=#000000;fontSize=17;direction=west;" vertex="1" parent="1">
                    <mxGeometry x="240" y="347" width="280" height="30" as="geometry"/>
                </mxCell>
                <mxCell id="cvKSAtzWg2OH9WG14mFE-143" value="220" style="shape=partialRectangle;whiteSpace=wrap;html=1;bottom=1;right=1;left=1;top=0;fillColor=#FFFFFF;routingCenterX=-0.5;shadow=0;comic=0;strokeColor=#000000;strokeWidth=1;fontSize=14;fontColor=#000000;" vertex="1" parent="1">
                    <mxGeometry x="380" y="435" width="140" height="30" as="geometry"/>
                </mxCell>
                <mxCell id="cvKSAtzWg2OH9WG14mFE-144" value="220" style="shape=partialRectangle;whiteSpace=wrap;html=1;bottom=1;right=1;left=1;top=0;fillColor=#FFFFFF;routingCenterX=-0.5;shadow=0;comic=0;strokeColor=#000000;strokeWidth=1;fontSize=14;fontColor=#000000;" vertex="1" parent="1">
                    <mxGeometry x="240" y="435" width="140" height="30" as="geometry"/>
                </mxCell>
                <mxCell id="cvKSAtzWg2OH9WG14mFE-145" value="" style="line;strokeWidth=1;html=1;shadow=0;comic=0;strokeColor=#000000;fontSize=17;fillColor=#FFFFFF;" vertex="1" parent="1">
                    <mxGeometry x="290" y="436" width="190" height="1" as="geometry"/>
                </mxCell>
                <mxCell id="cvKSAtzWg2OH9WG14mFE-146" value="&lt;font size=&quot;1&quot; style=&quot;&quot; color=&quot;#000000&quot;&gt;&lt;b style=&quot;font-size: 12px;&quot;&gt;Mana Points&lt;/b&gt;&lt;/font&gt;" style="shape=partialRectangle;whiteSpace=wrap;html=1;bottom=1;right=1;left=1;top=0;fillColor=#FFFFFF;routingCenterX=-0.5;shadow=0;comic=0;strokeColor=#000000;fontSize=17;direction=west;" vertex="1" parent="1">
                    <mxGeometry x="240" y="406" width="280" height="30" as="geometry"/>
                </mxCell>
                <mxCell id="cvKSAtzWg2OH9WG14mFE-147" value="-" style="shape=partialRectangle;whiteSpace=wrap;html=1;bottom=1;right=1;left=1;top=0;fillColor=#FFFFFF;routingCenterX=-0.5;shadow=0;comic=0;strokeColor=#000000;strokeWidth=1;fontSize=14;fontColor=#000000;" vertex="1" parent="1">
                    <mxGeometry x="770" y="287" width="50" height="30" as="geometry"/>
                </mxCell>
                <mxCell id="cvKSAtzWg2OH9WG14mFE-148" value="Locked" style="shape=partialRectangle;whiteSpace=wrap;html=1;bottom=1;right=1;left=1;top=0;fillColor=#FFFFFF;routingCenterX=-0.5;shadow=0;comic=0;strokeColor=#000000;strokeWidth=1;fontSize=14;fontColor=#000000;" vertex="1" parent="1">
                    <mxGeometry x="540" y="287" width="140" height="30" as="geometry"/>
                </mxCell>
                <mxCell id="cvKSAtzWg2OH9WG14mFE-151" value="-" style="shape=partialRectangle;whiteSpace=wrap;html=1;bottom=1;right=1;left=1;top=0;fillColor=#FFFFFF;routingCenterX=-0.5;shadow=0;comic=0;strokeColor=#000000;strokeWidth=1;fontSize=14;fontColor=#000000;" vertex="1" parent="1">
                    <mxGeometry x="680" y="287" width="90" height="30" as="geometry"/>
                </mxCell>
                <mxCell id="cvKSAtzWg2OH9WG14mFE-150" value="&lt;font size=&quot;1&quot; style=&quot;&quot; color=&quot;#000000&quot;&gt;&lt;b style=&quot;font-size: 12px;&quot;&gt;Mystic Skill 1&lt;/b&gt;&lt;/font&gt;" style="shape=partialRectangle;whiteSpace=wrap;html=1;bottom=1;right=1;left=1;top=0;fillColor=#FFFFFF;routingCenterX=-0.5;shadow=0;comic=0;strokeColor=#000000;fontSize=17;direction=west;" vertex="1" parent="1">
                    <mxGeometry x="540" y="258" width="280" height="30" as="geometry"/>
                </mxCell>
                <mxCell id="cvKSAtzWg2OH9WG14mFE-149" value="" style="line;strokeWidth=1;html=1;shadow=0;comic=0;strokeColor=#000000;fontSize=17;fillColor=#FFFFFF;" vertex="1" parent="1">
                    <mxGeometry x="560" y="288" width="240" height="1" as="geometry"/>
                </mxCell>
                <mxCell id="cvKSAtzWg2OH9WG14mFE-152" value="-" style="shape=partialRectangle;whiteSpace=wrap;html=1;bottom=1;right=1;left=1;top=0;fillColor=#FFFFFF;routingCenterX=-0.5;shadow=0;comic=0;strokeColor=#000000;strokeWidth=1;fontSize=14;fontColor=#000000;" vertex="1" parent="1">
                    <mxGeometry x="770" y="346" width="50" height="30" as="geometry"/>
                </mxCell>
                <mxCell id="cvKSAtzWg2OH9WG14mFE-153" value="Locked" style="shape=partialRectangle;whiteSpace=wrap;html=1;bottom=1;right=1;left=1;top=0;fillColor=#FFFFFF;routingCenterX=-0.5;shadow=0;comic=0;strokeColor=#000000;strokeWidth=1;fontSize=14;fontColor=#000000;" vertex="1" parent="1">
                    <mxGeometry x="540" y="346" width="140" height="30" as="geometry"/>
                </mxCell>
                <mxCell id="cvKSAtzWg2OH9WG14mFE-154" value="-" style="shape=partialRectangle;whiteSpace=wrap;html=1;bottom=1;right=1;left=1;top=0;fillColor=#FFFFFF;routingCenterX=-0.5;shadow=0;comic=0;strokeColor=#000000;strokeWidth=1;fontSize=14;fontColor=#000000;" vertex="1" parent="1">
                    <mxGeometry x="680" y="346" width="90" height="30" as="geometry"/>
                </mxCell>
                <mxCell id="cvKSAtzWg2OH9WG14mFE-155" value="&lt;font size=&quot;1&quot; style=&quot;&quot; color=&quot;#000000&quot;&gt;&lt;b style=&quot;font-size: 12px;&quot;&gt;Mystic Skill 2&lt;/b&gt;&lt;/font&gt;" style="shape=partialRectangle;whiteSpace=wrap;html=1;bottom=1;right=1;left=1;top=0;fillColor=#FFFFFF;routingCenterX=-0.5;shadow=0;comic=0;strokeColor=#000000;fontSize=17;direction=west;" vertex="1" parent="1">
                    <mxGeometry x="540" y="317" width="280" height="30" as="geometry"/>
                </mxCell>
                <mxCell id="cvKSAtzWg2OH9WG14mFE-156" value="" style="line;strokeWidth=1;html=1;shadow=0;comic=0;strokeColor=#000000;fontSize=17;fillColor=#FFFFFF;" vertex="1" parent="1">
                    <mxGeometry x="560" y="347" width="240" height="1" as="geometry"/>
                </mxCell>
                <mxCell id="cvKSAtzWg2OH9WG14mFE-157" value="-" style="shape=partialRectangle;whiteSpace=wrap;html=1;bottom=1;right=1;left=1;top=0;fillColor=#FFFFFF;routingCenterX=-0.5;shadow=0;comic=0;strokeColor=#000000;strokeWidth=1;fontSize=14;fontColor=#000000;" vertex="1" parent="1">
                    <mxGeometry x="770" y="405" width="50" height="30" as="geometry"/>
                </mxCell>
                <mxCell id="cvKSAtzWg2OH9WG14mFE-158" value="Locked" style="shape=partialRectangle;whiteSpace=wrap;html=1;bottom=1;right=1;left=1;top=0;fillColor=#FFFFFF;routingCenterX=-0.5;shadow=0;comic=0;strokeColor=#000000;strokeWidth=1;fontSize=14;fontColor=#000000;" vertex="1" parent="1">
                    <mxGeometry x="540" y="405" width="140" height="30" as="geometry"/>
                </mxCell>
                <mxCell id="cvKSAtzWg2OH9WG14mFE-159" value="-" style="shape=partialRectangle;whiteSpace=wrap;html=1;bottom=1;right=1;left=1;top=0;fillColor=#FFFFFF;routingCenterX=-0.5;shadow=0;comic=0;strokeColor=#000000;strokeWidth=1;fontSize=14;fontColor=#000000;" vertex="1" parent="1">
                    <mxGeometry x="680" y="405" width="90" height="30" as="geometry"/>
                </mxCell>
                <mxCell id="cvKSAtzWg2OH9WG14mFE-160" value="&lt;font size=&quot;1&quot; style=&quot;&quot; color=&quot;#000000&quot;&gt;&lt;b style=&quot;font-size: 12px;&quot;&gt;Mystic Skill 3&lt;/b&gt;&lt;/font&gt;" style="shape=partialRectangle;whiteSpace=wrap;html=1;bottom=1;right=1;left=1;top=0;fillColor=#FFFFFF;routingCenterX=-0.5;shadow=0;comic=0;strokeColor=#000000;fontSize=17;direction=west;" vertex="1" parent="1">
                    <mxGeometry x="540" y="376" width="280" height="30" as="geometry"/>
                </mxCell>
                <mxCell id="cvKSAtzWg2OH9WG14mFE-161" value="" style="line;strokeWidth=1;html=1;shadow=0;comic=0;strokeColor=#000000;fontSize=17;fillColor=#FFFFFF;" vertex="1" parent="1">
                    <mxGeometry x="560" y="406" width="240" height="1" as="geometry"/>
                </mxCell>
                <mxCell id="cvKSAtzWg2OH9WG14mFE-162" value="&lt;b&gt;&lt;font color=&quot;#000000&quot;&gt;Mystic Skills&lt;/font&gt;&lt;/b&gt;" style="rounded=1;whiteSpace=wrap;html=1;fillColor=#CCCCCC;strokeColor=#000000;arcSize=0;" vertex="1" parent="1">
                    <mxGeometry x="540" y="228" width="280" height="30" as="geometry"/>
                </mxCell>
                <mxCell id="cvKSAtzWg2OH9WG14mFE-163" value="&lt;font style=&quot;font-size: 14px;&quot; color=&quot;#000000&quot;&gt;1&lt;/font&gt;" style="shape=partialRectangle;whiteSpace=wrap;html=1;bottom=1;right=1;left=1;top=0;fillColor=#FFFFFF;routingCenterX=-0.5;shadow=0;comic=0;strokeColor=#000000;fontSize=17;" vertex="1" parent="1">
                    <mxGeometry x="250" y="559.5" width="280" height="30" as="geometry"/>
                </mxCell>
                <mxCell id="cvKSAtzWg2OH9WG14mFE-164" value="&lt;font size=&quot;1&quot; style=&quot;&quot; color=&quot;#000000&quot;&gt;&lt;b style=&quot;font-size: 12px;&quot;&gt;Strength&lt;/b&gt;&lt;/font&gt;" style="shape=partialRectangle;whiteSpace=wrap;html=1;bottom=1;right=1;left=1;top=0;fillColor=#FFFFFF;routingCenterX=-0.5;shadow=0;comic=0;strokeColor=#000000;fontSize=17;direction=west;" vertex="1" parent="1">
                    <mxGeometry x="250" y="530.5" width="280" height="30" as="geometry"/>
                </mxCell>
                <mxCell id="cvKSAtzWg2OH9WG14mFE-165" value="" style="line;strokeWidth=1;html=1;shadow=0;comic=0;strokeColor=#000000;fontSize=17;fillColor=#FFFFFF;" vertex="1" parent="1">
                    <mxGeometry x="300" y="560.5" width="190" height="1" as="geometry"/>
                </mxCell>
                <mxCell id="cvKSAtzWg2OH9WG14mFE-166" value="&lt;font style=&quot;font-size: 14px;&quot; color=&quot;#000000&quot;&gt;1&lt;/font&gt;" style="shape=partialRectangle;whiteSpace=wrap;html=1;bottom=1;right=1;left=1;top=0;fillColor=#FFFFFF;routingCenterX=-0.5;shadow=0;comic=0;strokeColor=#000000;fontSize=17;" vertex="1" parent="1">
                    <mxGeometry x="250" y="618.5" width="280" height="30" as="geometry"/>
                </mxCell>
                <mxCell id="cvKSAtzWg2OH9WG14mFE-167" value="&lt;font size=&quot;1&quot; style=&quot;&quot; color=&quot;#000000&quot;&gt;&lt;b style=&quot;font-size: 12px;&quot;&gt;Dexterity&lt;/b&gt;&lt;/font&gt;" style="shape=partialRectangle;whiteSpace=wrap;html=1;bottom=1;right=1;left=1;top=0;fillColor=#FFFFFF;routingCenterX=-0.5;shadow=0;comic=0;strokeColor=#000000;fontSize=17;direction=west;" vertex="1" parent="1">
                    <mxGeometry x="250" y="589.5" width="280" height="30" as="geometry"/>
                </mxCell>
                <mxCell id="cvKSAtzWg2OH9WG14mFE-168" value="" style="line;strokeWidth=1;html=1;shadow=0;comic=0;strokeColor=#000000;fontSize=17;fillColor=#FFFFFF;" vertex="1" parent="1">
                    <mxGeometry x="300" y="619.5" width="190" height="1" as="geometry"/>
                </mxCell>
                <mxCell id="cvKSAtzWg2OH9WG14mFE-174" value="&lt;font style=&quot;font-size: 14px;&quot; color=&quot;#000000&quot;&gt;Locked&lt;/font&gt;" style="shape=partialRectangle;whiteSpace=wrap;html=1;bottom=1;right=1;left=1;top=0;fillColor=#FFFFFF;routingCenterX=-0.5;shadow=0;comic=0;strokeColor=#000000;fontSize=17;" vertex="1" parent="1">
                    <mxGeometry x="250" y="677.5" width="280" height="30" as="geometry"/>
                </mxCell>
                <mxCell id="cvKSAtzWg2OH9WG14mFE-175" value="&lt;font size=&quot;1&quot; style=&quot;&quot; color=&quot;#000000&quot;&gt;&lt;b style=&quot;font-size: 12px;&quot;&gt;Aura&lt;/b&gt;&lt;/font&gt;" style="shape=partialRectangle;whiteSpace=wrap;html=1;bottom=1;right=1;left=1;top=0;fillColor=#FFFFFF;routingCenterX=-0.5;shadow=0;comic=0;strokeColor=#000000;fontSize=17;direction=west;" vertex="1" parent="1">
                    <mxGeometry x="250" y="648.5" width="280" height="30" as="geometry"/>
                </mxCell>
                <mxCell id="cvKSAtzWg2OH9WG14mFE-176" value="" style="line;strokeWidth=1;html=1;shadow=0;comic=0;strokeColor=#000000;fontSize=17;fillColor=#FFFFFF;" vertex="1" parent="1">
                    <mxGeometry x="300" y="678.5" width="190" height="1" as="geometry"/>
                </mxCell>
                <mxCell id="cvKSAtzWg2OH9WG14mFE-180" value="&lt;font style=&quot;font-size: 14px;&quot; color=&quot;#000000&quot;&gt;5&lt;/font&gt;" style="shape=partialRectangle;whiteSpace=wrap;html=1;bottom=1;right=1;left=1;top=0;fillColor=#FFFFFF;routingCenterX=-0.5;shadow=0;comic=0;strokeColor=#000000;fontSize=17;" vertex="1" parent="1">
                    <mxGeometry x="530" y="559.5" width="280" height="30" as="geometry"/>
                </mxCell>
                <mxCell id="cvKSAtzWg2OH9WG14mFE-181" value="&lt;font size=&quot;1&quot; style=&quot;&quot; color=&quot;#000000&quot;&gt;&lt;b style=&quot;font-size: 12px;&quot;&gt;Perception&lt;/b&gt;&lt;/font&gt;" style="shape=partialRectangle;whiteSpace=wrap;html=1;bottom=1;right=1;left=1;top=0;fillColor=#FFFFFF;routingCenterX=-0.5;shadow=0;comic=0;strokeColor=#000000;fontSize=17;direction=west;gradientColor=none;gradientDirection=west;" vertex="1" parent="1">
                    <mxGeometry x="530" y="530.5" width="280" height="30" as="geometry"/>
                </mxCell>
                <mxCell id="cvKSAtzWg2OH9WG14mFE-182" value="" style="line;strokeWidth=1;html=1;shadow=0;comic=0;strokeColor=#000000;fontSize=17;fillColor=#FFFFFF;" vertex="1" parent="1">
                    <mxGeometry x="580" y="560.5" width="190" height="1" as="geometry"/>
                </mxCell>
                <mxCell id="cvKSAtzWg2OH9WG14mFE-183" value="&lt;font style=&quot;font-size: 14px;&quot; color=&quot;#000000&quot;&gt;22&lt;/font&gt;" style="shape=partialRectangle;whiteSpace=wrap;html=1;bottom=1;right=1;left=1;top=0;fillColor=#FFFFFF;routingCenterX=-0.5;shadow=0;comic=0;strokeColor=#000000;fontSize=17;" vertex="1" parent="1">
                    <mxGeometry x="530" y="618.5" width="280" height="30" as="geometry"/>
                </mxCell>
                <mxCell id="cvKSAtzWg2OH9WG14mFE-184" value="&lt;font size=&quot;1&quot; style=&quot;&quot; color=&quot;#000000&quot;&gt;&lt;b style=&quot;font-size: 12px;&quot;&gt;Intelligence&lt;/b&gt;&lt;/font&gt;" style="shape=partialRectangle;whiteSpace=wrap;html=1;bottom=1;right=1;left=1;top=0;fillColor=#FFFFFF;routingCenterX=-0.5;shadow=0;comic=0;strokeColor=#000000;fontSize=17;direction=west;" vertex="1" parent="1">
                    <mxGeometry x="530" y="589.5" width="280" height="30" as="geometry"/>
                </mxCell>
                <mxCell id="cvKSAtzWg2OH9WG14mFE-185" value="" style="line;strokeWidth=1;html=1;shadow=0;comic=0;strokeColor=#000000;fontSize=17;fillColor=#FFFFFF;" vertex="1" parent="1">
                    <mxGeometry x="580" y="619.5" width="190" height="1" as="geometry"/>
                </mxCell>
                <mxCell id="cvKSAtzWg2OH9WG14mFE-186" value="&lt;font style=&quot;font-size: 14px;&quot; color=&quot;#000000&quot;&gt;Locked&lt;/font&gt;" style="shape=partialRectangle;whiteSpace=wrap;html=1;bottom=1;right=1;left=1;top=0;fillColor=#FFFFFF;routingCenterX=-0.5;shadow=0;comic=0;strokeColor=#000000;fontSize=17;" vertex="1" parent="1">
                    <mxGeometry x="530" y="677.5" width="280" height="30" as="geometry"/>
                </mxCell>
                <mxCell id="cvKSAtzWg2OH9WG14mFE-187" value="&lt;font size=&quot;1&quot; style=&quot;&quot; color=&quot;#000000&quot;&gt;&lt;b style=&quot;font-size: 12px;&quot;&gt;Essence&lt;/b&gt;&lt;/font&gt;" style="shape=partialRectangle;whiteSpace=wrap;html=1;bottom=1;right=1;left=1;top=0;fillColor=#FFFFFF;routingCenterX=-0.5;shadow=0;comic=0;strokeColor=#000000;fontSize=17;direction=west;" vertex="1" parent="1">
                    <mxGeometry x="530" y="648.5" width="280" height="30" as="geometry"/>
                </mxCell>
                <mxCell id="cvKSAtzWg2OH9WG14mFE-188" value="" style="line;strokeWidth=1;html=1;shadow=0;comic=0;strokeColor=#000000;fontSize=17;fillColor=#FFFFFF;" vertex="1" parent="1">
                    <mxGeometry x="580" y="678.5" width="190" height="1" as="geometry"/>
                </mxCell>
                <mxCell id="cvKSAtzWg2OH9WG14mFE-189" value="&lt;font style=&quot;font-size: 14px;&quot; color=&quot;#000000&quot;&gt;2&lt;/font&gt;" style="shape=partialRectangle;whiteSpace=wrap;html=1;bottom=1;right=1;left=1;top=0;fillColor=#FFFFFF;routingCenterX=-0.5;shadow=0;comic=0;strokeColor=#000000;fontSize=17;" vertex="1" parent="1">
                    <mxGeometry x="250" y="736.5" width="280" height="30" as="geometry"/>
                </mxCell>
                <mxCell id="cvKSAtzWg2OH9WG14mFE-190" value="&lt;font size=&quot;1&quot; style=&quot;&quot; color=&quot;#000000&quot;&gt;&lt;b style=&quot;font-size: 12px;&quot;&gt;Constitution&lt;/b&gt;&lt;/font&gt;" style="shape=partialRectangle;whiteSpace=wrap;html=1;bottom=1;right=1;left=1;top=0;fillColor=#FFFFFF;routingCenterX=-0.5;shadow=0;comic=0;strokeColor=#000000;fontSize=17;direction=west;" vertex="1" parent="1">
                    <mxGeometry x="250" y="707.5" width="280" height="30" as="geometry"/>
                </mxCell>
                <mxCell id="cvKSAtzWg2OH9WG14mFE-191" value="" style="line;strokeWidth=1;html=1;shadow=0;comic=0;strokeColor=#000000;fontSize=17;fillColor=#FFFFFF;" vertex="1" parent="1">
                    <mxGeometry x="300" y="737.5" width="190" height="1" as="geometry"/>
                </mxCell>
                <mxCell id="cvKSAtzWg2OH9WG14mFE-193" value="&lt;font style=&quot;font-size: 14px;&quot; color=&quot;#000000&quot;&gt;20&lt;/font&gt;" style="shape=partialRectangle;whiteSpace=wrap;html=1;bottom=1;right=1;left=1;top=0;fillColor=#FFFFFF;routingCenterX=-0.5;shadow=0;comic=0;strokeColor=#000000;fontSize=17;" vertex="1" parent="1">
                    <mxGeometry x="250" y="795.5" width="280" height="30" as="geometry"/>
                </mxCell>
                <mxCell id="cvKSAtzWg2OH9WG14mFE-194" value="&lt;font size=&quot;1&quot; style=&quot;&quot; color=&quot;#000000&quot;&gt;&lt;b style=&quot;font-size: 12px;&quot;&gt;Spirit&lt;/b&gt;&lt;/font&gt;" style="shape=partialRectangle;whiteSpace=wrap;html=1;bottom=1;right=1;left=1;top=0;fillColor=#FFFFFF;routingCenterX=-0.5;shadow=0;comic=0;strokeColor=#000000;fontSize=17;direction=west;" vertex="1" parent="1">
                    <mxGeometry x="250" y="766.5" width="280" height="30" as="geometry"/>
                </mxCell>
                <mxCell id="cvKSAtzWg2OH9WG14mFE-195" value="" style="line;strokeWidth=1;html=1;shadow=0;comic=0;strokeColor=#000000;fontSize=17;fillColor=#FFFFFF;" vertex="1" parent="1">
                    <mxGeometry x="300" y="796.5" width="190" height="1" as="geometry"/>
                </mxCell>
                <mxCell id="cvKSAtzWg2OH9WG14mFE-196" value="&lt;font style=&quot;font-size: 14px;&quot; color=&quot;#000000&quot;&gt;Locked&lt;/font&gt;" style="shape=partialRectangle;whiteSpace=wrap;html=1;bottom=1;right=1;left=1;top=0;fillColor=#FFFFFF;routingCenterX=-0.5;shadow=0;comic=0;strokeColor=#000000;fontSize=17;" vertex="1" parent="1">
                    <mxGeometry x="250" y="854.5" width="280" height="30" as="geometry"/>
                </mxCell>
                <mxCell id="cvKSAtzWg2OH9WG14mFE-197" value="&lt;font size=&quot;1&quot; style=&quot;&quot; color=&quot;#000000&quot;&gt;&lt;b style=&quot;font-size: 12px;&quot;&gt;Defense&lt;/b&gt;&lt;/font&gt;" style="shape=partialRectangle;whiteSpace=wrap;html=1;bottom=1;right=1;left=1;top=0;fillColor=#FFFFFF;routingCenterX=-0.5;shadow=0;comic=0;strokeColor=#000000;fontSize=17;direction=west;" vertex="1" parent="1">
                    <mxGeometry x="250" y="825.5" width="280" height="30" as="geometry"/>
                </mxCell>
                <mxCell id="cvKSAtzWg2OH9WG14mFE-198" value="" style="line;strokeWidth=1;html=1;shadow=0;comic=0;strokeColor=#000000;fontSize=17;fillColor=#FFFFFF;" vertex="1" parent="1">
                    <mxGeometry x="300" y="855.5" width="190" height="1" as="geometry"/>
                </mxCell>
                <mxCell id="cvKSAtzWg2OH9WG14mFE-202" value="&lt;font style=&quot;font-size: 14px;&quot; color=&quot;#000000&quot;&gt;11&lt;/font&gt;" style="shape=partialRectangle;whiteSpace=wrap;html=1;bottom=1;right=1;left=1;top=0;fillColor=#FFFFFF;routingCenterX=-0.5;shadow=0;comic=0;strokeColor=#000000;fontSize=17;" vertex="1" parent="1">
                    <mxGeometry x="530" y="736.5" width="280" height="30" as="geometry"/>
                </mxCell>
                <mxCell id="cvKSAtzWg2OH9WG14mFE-203" value="&lt;font size=&quot;1&quot; style=&quot;&quot; color=&quot;#000000&quot;&gt;&lt;b style=&quot;font-size: 12px;&quot;&gt;Charisma&lt;/b&gt;&lt;/font&gt;" style="shape=partialRectangle;whiteSpace=wrap;html=1;bottom=1;right=1;left=1;top=0;fillColor=#FFFFFF;routingCenterX=-0.5;shadow=0;comic=0;strokeColor=#000000;fontSize=17;direction=west;" vertex="1" parent="1">
                    <mxGeometry x="530" y="707.5" width="280" height="30" as="geometry"/>
                </mxCell>
                <mxCell id="cvKSAtzWg2OH9WG14mFE-204" value="" style="line;strokeWidth=1;html=1;shadow=0;comic=0;strokeColor=#000000;fontSize=17;fillColor=#FFFFFF;" vertex="1" parent="1">
                    <mxGeometry x="580" y="737.5" width="190" height="1" as="geometry"/>
                </mxCell>
                <mxCell id="cvKSAtzWg2OH9WG14mFE-205" value="&lt;font style=&quot;font-size: 14px;&quot; color=&quot;#000000&quot;&gt;34&lt;/font&gt;" style="shape=partialRectangle;whiteSpace=wrap;html=1;bottom=1;right=1;left=1;top=0;fillColor=#FFFFFF;routingCenterX=-0.5;shadow=0;comic=0;strokeColor=#000000;fontSize=17;" vertex="1" parent="1">
                    <mxGeometry x="530" y="795.5" width="280" height="30" as="geometry"/>
                </mxCell>
                <mxCell id="cvKSAtzWg2OH9WG14mFE-206" value="&lt;font size=&quot;1&quot; style=&quot;&quot; color=&quot;#000000&quot;&gt;&lt;b style=&quot;font-size: 12px;&quot;&gt;Luck&lt;/b&gt;&lt;/font&gt;" style="shape=partialRectangle;whiteSpace=wrap;html=1;bottom=1;right=1;left=1;top=0;fillColor=#FFFFFF;routingCenterX=-0.5;shadow=0;comic=0;strokeColor=#000000;fontSize=17;direction=west;" vertex="1" parent="1">
                    <mxGeometry x="530" y="766.5" width="280" height="30" as="geometry"/>
                </mxCell>
                <mxCell id="cvKSAtzWg2OH9WG14mFE-207" value="" style="line;strokeWidth=1;html=1;shadow=0;comic=0;strokeColor=#000000;fontSize=17;fillColor=#FFFFFF;" vertex="1" parent="1">
                    <mxGeometry x="580" y="796.5" width="190" height="1" as="geometry"/>
                </mxCell>
                <mxCell id="cvKSAtzWg2OH9WG14mFE-211" value="&lt;font style=&quot;font-size: 14px;&quot; color=&quot;#000000&quot;&gt;Locked (6)&lt;/font&gt;" style="shape=partialRectangle;whiteSpace=wrap;html=1;bottom=1;right=1;left=1;top=0;fillColor=#FFFFFF;routingCenterX=-0.5;shadow=0;comic=0;strokeColor=#000000;fontSize=17;" vertex="1" parent="1">
                    <mxGeometry x="530" y="854.5" width="280" height="30" as="geometry"/>
                </mxCell>
                <mxCell id="cvKSAtzWg2OH9WG14mFE-212" value="&lt;font size=&quot;1&quot; style=&quot;&quot; color=&quot;#000000&quot;&gt;&lt;b style=&quot;font-size: 12px;&quot;&gt;Free Status Points&lt;/b&gt;&lt;/font&gt;" style="shape=partialRectangle;whiteSpace=wrap;html=1;bottom=1;right=1;left=1;top=0;fillColor=#FFFFFF;routingCenterX=-0.5;shadow=0;comic=0;strokeColor=#000000;fontSize=17;direction=west;" vertex="1" parent="1">
                    <mxGeometry x="530" y="825.5" width="280" height="30" as="geometry"/>
                </mxCell>
                <mxCell id="cvKSAtzWg2OH9WG14mFE-213" value="" style="line;strokeWidth=1;html=1;shadow=0;comic=0;strokeColor=#000000;fontSize=17;fillColor=#FFFFFF;" vertex="1" parent="1">
                    <mxGeometry x="580" y="855.5" width="190" height="1" as="geometry"/>
                </mxCell>
                <mxCell id="cvKSAtzWg2OH9WG14mFE-214" value="&lt;b&gt;Skills&lt;/b&gt;" style="rounded=1;whiteSpace=wrap;html=1;fillColor=#CCCCCC;strokeColor=#000000;fontColor=#000000;arcSize=0;" vertex="1" parent="1">
                    <mxGeometry x="250" y="910" width="560" height="30" as="geometry"/>
                </mxCell>
                <UserObject label="%Skill%&lt;hr&gt;%Level%" Skill="Meditation" Level="9" Experience="45" Gesamtexperience="680" placeholders="1" id="zqYd7gqW0krzWBT6YyF8-65">
                    <mxCell style="rounded=0;whiteSpace=wrap;html=1;shadow=0;comic=0;pointerEvents=1;strokeColor=#000000;strokeWidth=1;fontFamily=Helvetica;fontSize=12;fillColor=#FFFFFF;opacity=70;fontColor=#000000;" vertex="1" parent="1">
                        <mxGeometry x="250" y="940" width="140" height="60" as="geometry"/>
                    </mxCell>
                </UserObject>
                <UserObject label="%Skill%&lt;hr&gt;%Level%" Skill="Logics" Level="13" Experience="91" Gesamtexperience="" placeholders="1" id="zqYd7gqW0krzWBT6YyF8-66">
                    <mxCell style="rounded=0;whiteSpace=wrap;html=1;shadow=0;comic=0;pointerEvents=1;strokeColor=#000000;strokeWidth=1;fontFamily=Helvetica;fontSize=12;fillColor=#FFFFFF;opacity=70;fontColor=#000000;" vertex="1" parent="1">
                        <mxGeometry x="390" y="940" width="140" height="60" as="geometry"/>
                    </mxCell>
                </UserObject>
                <UserObject label="%Skill%&lt;hr&gt;%Level%" Skill="Charm" Level="5" Experience="15" Gesamtexperience="" placeholders="1" id="zqYd7gqW0krzWBT6YyF8-67">
                    <mxCell style="rounded=0;whiteSpace=wrap;html=1;shadow=0;comic=0;pointerEvents=1;strokeColor=#000000;strokeWidth=1;fontFamily=Helvetica;fontSize=12;fillColor=#FFFFFF;opacity=70;fontColor=#000000;" vertex="1" parent="1">
                        <mxGeometry x="530" y="940" width="140" height="60" as="geometry"/>
                    </mxCell>
                </UserObject>
                <UserObject label="%Skill%&lt;hr&gt;%Level%" Skill="Physics" Level="14" Experience="105" Gesamtexperience="" placeholders="1" id="zqYd7gqW0krzWBT6YyF8-68">
                    <mxCell style="rounded=0;whiteSpace=wrap;html=1;shadow=0;comic=0;pointerEvents=1;strokeColor=#000000;strokeWidth=1;fontFamily=Helvetica;fontSize=12;fillColor=#FFFFFF;opacity=70;fontColor=#000000;" vertex="1" parent="1">
                        <mxGeometry x="250" y="1000" width="140" height="60" as="geometry"/>
                    </mxCell>
                </UserObject>
                <UserObject label="%Skill%&lt;hr&gt;%Level%" Skill="Algorithmics" Level="18" Experience="171" Gesamtexperience="" placeholders="1" id="zqYd7gqW0krzWBT6YyF8-69">
                    <mxCell style="rounded=0;whiteSpace=wrap;html=1;shadow=0;comic=0;pointerEvents=1;strokeColor=#000000;strokeWidth=1;fontFamily=Helvetica;fontSize=12;fillColor=#FFFFFF;opacity=70;fontColor=#000000;" vertex="1" parent="1">
                        <mxGeometry x="670" y="940" width="140" height="60" as="geometry"/>
                    </mxCell>
                </UserObject>
                <UserObject label="%Skill%&lt;hr&gt;%Level%" Skill="Mathematics" Level="22" Experience="253" Gesamtexperience="" placeholders="1" id="zqYd7gqW0krzWBT6YyF8-70">
                    <mxCell style="rounded=0;whiteSpace=wrap;html=1;shadow=0;comic=0;pointerEvents=1;strokeColor=#000000;strokeWidth=1;fontFamily=Helvetica;fontSize=12;fillColor=#FFFFFF;opacity=70;fontColor=#000000;" vertex="1" parent="1">
                        <mxGeometry x="390" y="1000" width="140" height="60" as="geometry"/>
                    </mxCell>
                </UserObject>
            </root>
        </mxGraphModel>
    </diagram>
    <diagram id="8BC78sLFPZLcv6mnZRyu" name="Page-2">
        <mxGraphModel dx="711" dy="722" grid="1" gridSize="10" guides="1" tooltips="1" connect="1" arrows="1" fold="1" page="1" pageScale="1" pageWidth="850" pageHeight="1100" math="0" shadow="0">
            <root>
                <mxCell id="0"/>
                <mxCell id="1" parent="0"/>
            </root>
        </mxGraphModel>
    </diagram>
</mxfile>